<?xml version="1.0" encoding="UTF-8"?>
<svg xmlns="http://www.w3.org/2000/svg" viewBox="0 0 1843.15 512" width="2400" height="666.73901247965"><path fill="#d73237" d="M1843.15 256.3c0 140.85-412.76 255.7-921.64 255.7S0 397.15 0 256.3 412.75 0 921.51 0s921.64 114.83 921.64 256.3z"/><path fill="#fff" d="M1119.82 223.15l-57.93 125.38h-50.83l53.08-115.16c1.61-3.54-1.41-7.06-4.61-7.06H970.4l-56.46 122.21h-50.88l74.38-160.86h160.36c13.27 0 24.25 11.03 24.25 24.35 0 3.6-.75 8.08-2.23 11.12zm-450.8-35.48H561.46c-19.19 0-36.57 11.05-44.8 28.47l-61.18 132.38h50.88L559.7 233.6c1.77-3.83 6.78-7.3 11.29-7.3h80.18l17.86-38.65zm870.66 38.65h141.56l17.89-38.7h-169.49c-11.31 0-20.5 2.74-28.3 7.28-7.33 4.64-12.21 11.36-16.44 20.72l-16.59 35.88c-1.86 4.05-2.31 7.24-2.31 10.98 0 13.68 10.79 24.61 24.24 24.72h111.23l-6.86 14.84c-2.6 5.63-8.03 7.85-11.63 7.85H1441.3l-17.81 38.65h170.89c19.22 0 36.08-11.68 43.86-29.12l16.32-35.3c6.56-14.24-2.4-35.05-22.69-35.05H1520.6l6.87-14.84c2.84-6.16 8.68-7.9 12.23-7.9zM499.12 187.68H346.73c-19.19.46-36.07 11.49-44.3 28.5l-43.3 93.7h-25.2l67.47-146.13c3.19-7.3 10.54-11.47 17.88-11.93h196.4l17.83-38.63H305.06c-18.73.03-36.02 11.04-44.31 28.5l-95.59 206.84h126.85l52.91-114.39c2.3-4.65 6.91-7.82 11.97-7.82h124.36l17.86-38.65zm675.08 0l-74.38 160.86h50.88l74.31-160.86h-50.8zm61.31-22.7l17.84-38.63h-50.8l-17.86 38.63h50.82zm-350.19 47.05c0 3.6-.43 7.11-1.63 9.82l-45.37 98.21c-8.24 17.42-25.62 28.47-44.8 28.47h-128.8c-13.27 0-24.25-11.03-24.25-24.35 0-3.69.44-7.31 1.71-10.05l45.29-97.98c8.24-17.42 25.62-28.47 44.8-28.47h128.8c13.27 0 24.25 11.03 24.25 24.35zm-62.53 14.29h-81.01c-4.5 0-9.51 3.46-11.28 7.3l-31.98 69.21c-1.61 3.54 1.41 7.06 4.61 7.06h80.99c4.5 0 9.51-3.46 11.29-7.3l32-69.21c1.61-3.54-1.41-7.06-4.61-7.06zm587.87-38.65l-53.13 114.92c-1.77 3.83-6.78 7.3-11.28 7.3h-80.99c-3.21 0-6.22-3.51-4.61-7.06l53.2-115.16h-51.05l-58.54 126.68c-1.2 2.71-1.63 6.22-1.63 9.82 0 13.32 10.98 24.35 24.25 24.35h128.75c19.19 0 36.57-11.05 44.8-28.47l61.18-132.38h-50.97z"/></svg>
